<svg width="64" height="64" viewBox="0 0 64 64" fill="none" xmlns="http://www.w3.org/2000/svg">
<path d="M32 5.33333C37.1737 5.33239 42.236 6.83648 46.5698 9.66228C50.9036 12.4881 54.3219 16.5136 56.4079 21.2481C58.4939 25.9826 59.1576 31.2217 58.3182 36.3269C57.4787 41.432 55.1723 46.1827 51.68 50" stroke="#EB6161" stroke-width="5.33333" stroke-linecap="round" stroke-linejoin="round"/>
<path d="M32 21.3333V42.6667" stroke="#EB6161" stroke-width="5.33333" stroke-linecap="round" stroke-linejoin="round"/>
<path d="M42.6666 32H21.3333" stroke="#EB6161" stroke-width="5.33333" stroke-linecap="round" stroke-linejoin="round"/>
<path d="M6.66665 23.6667C5.81691 26.2498 5.36727 28.9476 5.33331 31.6667" stroke="#EB6161" stroke-width="5.33333" stroke-linecap="round" stroke-linejoin="round"/>
<path d="M7.54669 42.6667C9.04403 46.1115 11.2522 49.2012 14.0267 51.7333" stroke="#EB6161" stroke-width="5.33333" stroke-linecap="round" stroke-linejoin="round"/>
<path d="M12.3627 13.96C13.1068 13.15 13.9003 12.3867 14.7387 11.6747" stroke="#EB6161" stroke-width="5.33333" stroke-linecap="round" stroke-linejoin="round"/>
<path d="M23.0507 57.12C29.7005 59.489 37.0184 59.1246 43.4 56.1067" stroke="#EB6161" stroke-width="5.33333" stroke-linecap="round" stroke-linejoin="round"/>
</svg>
