<svg width="64" height="64" viewBox="0 0 64 64" fill="none" xmlns="http://www.w3.org/2000/svg">
<path d="M8 18.6667V13.3333C8 11.9188 8.5619 10.5623 9.5621 9.5621C10.5623 8.5619 11.9188 8 13.3333 8H18.6667" stroke="#EB6161" stroke-width="6.16667" stroke-linecap="round" stroke-linejoin="round"/>
<path d="M45.3333 8H50.6667C52.0812 8 53.4377 8.5619 54.4379 9.5621C55.4381 10.5623 56 11.9188 56 13.3333V18.6667" stroke="#EB6161" stroke-width="6.16667" stroke-linecap="round" stroke-linejoin="round"/>
<path d="M56 45.3333V50.6667C56 52.0812 55.4381 53.4377 54.4379 54.4379C53.4377 55.4381 52.0812 56 50.6667 56H45.3333" stroke="#EB6161" stroke-width="6.16667" stroke-linecap="round" stroke-linejoin="round"/>
<path d="M18.6667 56H13.3333C11.9188 56 10.5623 55.4381 9.5621 54.4379C8.5619 53.4377 8 52.0812 8 50.6667V45.3333" stroke="#EB6161" stroke-width="6.16667" stroke-linecap="round" stroke-linejoin="round"/>
<path d="M42.6667 21.3333H21.3333C19.8606 21.3333 18.6667 22.5272 18.6667 24V40C18.6667 41.4728 19.8606 42.6667 21.3333 42.6667H42.6667C44.1394 42.6667 45.3333 41.4728 45.3333 40V24C45.3333 22.5272 44.1394 21.3333 42.6667 21.3333Z" stroke="#EB6161" stroke-width="6.16667" stroke-linecap="round" stroke-linejoin="round"/>
</svg>
